HIERARCHY
ROOT Hip
{
	OFFSET 0 1.131 0.0052
	CHANNELS 6 Xposition Yposition Zposition Xrotation Yrotation Zrotation
	JOINT Abdomen
	{
		OFFSET 0 -0.047353 -0.05
		CHANNELS 3 Xrotation Zrotation Yrotation
		JOINT Chest
		{
			OFFSET 0 0.132153 0.007439
			CHANNELS 3 Xrotation Zrotation Yrotation
			JOINT Neck
			{
				OFFSET 0 0.3078 0.006161
				CHANNELS 3 Xrotation Zrotation Yrotation
				JOINT Head_comp
				{
					OFFSET 0 0.0884 0.013
					CHANNELS 3 Xrotation Yrotation Zrotation
					End Site
					{
						OFFSET -0 0.156 0.0624
					}
				}
			}
			JOINT Left_Collar
			{
				OFFSET 0.02282 0.250342 0.017193
				CHANNELS 2 Yrotation Zrotation
				JOINT Left_Shoulder
				{
					OFFSET 0.15421 0 0
					CHANNELS 3 Xrotation Yrotation Zrotation
					JOINT Left_Forearm
					{
						OFFSET 0.265212 0 0
						CHANNELS 2 Yrotation Xrotation
						JOINT Left_Hand
						{
							OFFSET 0.27571 0 0
							CHANNELS 2 Zrotation Yrotation
							JOINT L1ProxPhalanx
							{
								OFFSET 0.014142 0.001733 0.014142
								CHANNELS 3 Yrotation Zrotation Xrotation
								JOINT L1MidPhalanx
								{
									OFFSET 0.04 0 0
									CHANNELS 1 Zrotation
									JOINT L1DistPhalanx
									{
										OFFSET 0.035 0 0
										CHANNELS 1 Zrotation
										End Site
										{
											OFFSET 0.029 -0 -0
										}
									}
								}
							}
							JOINT L2ProxPhalanx
							{
								OFFSET 0.0821037 0.001578 0.0219996
								CHANNELS 2 Yrotation Zrotation
								JOINT L2MidPhalanx
								{
									OFFSET 0.04 0 0
									CHANNELS 1 Zrotation
									JOINT L2DistPhalanx
									{
										OFFSET 0.028 0 0
										CHANNELS 1 Zrotation
										End Site
										{
											OFFSET 0.02 -0 -0
										}
									}
								}
							}
							JOINT L3ProxPhalanx
							{
								OFFSET 0.083 0 0
								CHANNELS 2 Yrotation Zrotation
								JOINT L3MidPhalanx
								{
									OFFSET 0.053 0 0
									CHANNELS 1 Zrotation
									JOINT L3DistPhalanx
									{
										OFFSET 0.03 0 0
										CHANNELS 1 Zrotation
										End Site
										{
											OFFSET 0.023 -0 -0
										}
									}
								}
							}
							JOINT L4ProxPhalanx
							{
								OFFSET 0.077274 -0.000761 -0.0207055
								CHANNELS 2 Yrotation Zrotation
								JOINT L4MidPhalanx
								{
									OFFSET 0.05 0 0
									CHANNELS 1 Zrotation
									JOINT L4DistPhalanx
									{
										OFFSET 0.03 0 0
										CHANNELS 1 Zrotation
										End Site
										{
											OFFSET 0.023 -0 -0
										}
									}
								}
							}
							JOINT L5ProxPhalanx
							{
								OFFSET 0.0675499 -0.001644 -0.039
								CHANNELS 2 Yrotation Zrotation
								JOINT L5MidPhalanx
								{
									OFFSET 0.04 0 0
									CHANNELS 1 Zrotation
									JOINT L5DistPhalanx
									{
										OFFSET 0.021 0 0
										CHANNELS 1 Zrotation
										End Site
										{
											OFFSET 0.022 -0 -0
										}
									}
								}
							}
						}
					}
				}
			}
			JOINT Right_Collar
			{
				OFFSET -0.02282 0.250342 0.017193
				CHANNELS 2 Yrotation Zrotation
				JOINT Right_Shoulder
				{
					OFFSET -0.15421 0 0
					CHANNELS 3 Xrotation Yrotation Zrotation
					JOINT Right_Forearm
					{
						OFFSET -0.265212 0 0
						CHANNELS 2 Yrotation Xrotation
						JOINT Right_Hand
						{
							OFFSET -0.27571 3e-006 0
							CHANNELS 2 Zrotation Yrotation
							JOINT R1ProxPhalanx
							{
								OFFSET -0.014142 0.001733 0.014142
								CHANNELS 3 Yrotation Zrotation Xrotation
								JOINT R1MidPhalanx
								{
									OFFSET -0.04 0 0
									CHANNELS 1 Zrotation
									JOINT R1DistPhalanx
									{
										OFFSET -0.035 0 0
										CHANNELS 1 Zrotation
										End Site
										{
											OFFSET -0.029 -0 -0
										}
									}
								}
							}
							JOINT R2ProxPhalanx
							{
								OFFSET -0.0821037 0.001578 0.0219996
								CHANNELS 2 Yrotation Zrotation
								JOINT R2MidPhalanx
								{
									OFFSET -0.04 0 0
									CHANNELS 1 Zrotation
									JOINT R2DistPhalanx
									{
										OFFSET -0.028 0 0
										CHANNELS 1 Zrotation
										End Site
										{
											OFFSET -0.02 -0 -0
										}
									}
								}
							}
							JOINT R3ProxPhalanx
							{
								OFFSET -0.083 0 0
								CHANNELS 2 Yrotation Zrotation
								JOINT R3MidPhalanx
								{
									OFFSET -0.053 0 0
									CHANNELS 1 Zrotation
									JOINT R3DistPhalanx
									{
										OFFSET -0.03 0 0
										CHANNELS 1 Zrotation
										End Site
										{
											OFFSET -0.023 -0 -0
										}
									}
								}
							}
							JOINT R4ProxPhalanx
							{
								OFFSET -0.077274 -0.000761 -0.0207055
								CHANNELS 2 Yrotation Zrotation
								JOINT R4MidPhalanx
								{
									OFFSET -0.05 0 0
									CHANNELS 1 Zrotation
									JOINT R4DistPhalanx
									{
										OFFSET -0.03 0 0
										CHANNELS 1 Zrotation
										End Site
										{
											OFFSET -0.023 -0 -0
										}
									}
								}
							}
							JOINT R5ProxPhalanx
							{
								OFFSET -0.0675499 -0.001644 -0.039
								CHANNELS 2 Yrotation Zrotation
								JOINT R5MidPhalanx
								{
									OFFSET -0.04 0 0
									CHANNELS 1 Zrotation
									JOINT R5DistPhalanx
									{
										OFFSET -0.021 0 0
										CHANNELS 1 Zrotation
										End Site
										{
											OFFSET -0.022 -0 -0
										}
									}
								}
							}
						}
					}
				}
			}
		}
	}
	JOINT Left_Thigh
	{
		OFFSET 0.1118 -0.1612 -0.0442
		CHANNELS 3 Xrotation Zrotation Yrotation
		JOINT Left_Shin
		{
			OFFSET 0 -0.477856 0
			CHANNELS 1 Xrotation
			JOINT Left_Foot
			{
				OFFSET 0 -0.431952 0
				CHANNELS 2 Xrotation Zrotation
				JOINT Left_Toe
				{
					OFFSET 0 -0.0442 0.119
					CHANNELS 1 Xrotation
					End Site
					{
						OFFSET -0 -0 0.07
					}
				}
			}
		}
	}
	JOINT Right_Thigh
	{
		OFFSET -0.1118 -0.1612 -0.0442
		CHANNELS 3 Xrotation Zrotation Yrotation
		JOINT Right_Shin
		{
			OFFSET 0 -0.477856 0
			CHANNELS 1 Xrotation
			JOINT Right_Foot
			{
				OFFSET 0 -0.431952 0
				CHANNELS 2 Xrotation Zrotation
				JOINT Right_Toe
				{
					OFFSET 0 -0.0442 0.119
					CHANNELS 1 Xrotation
					End Site
					{
						OFFSET -0 -0 0.07
					}
				}
			}
		}
	}
}
MOTION
Frames: 8
Frame Time: 0.009975
-0.105353 -0.0600292 0.0441015 -2.20193e-012 2.81196e-008 -5.10938e-006 0 -0 0 0 -0 0 0 -0 0 -0.712237 0.302013 -1.26819e-011 -10.9949 -15.322 -26.5398 -25.626 -22.9848 -25.3885 16.6985 6.9309 -5.46453 -5.69308 -75.8649 123.342 -6.86633 -4.64067 -5.01487 -32.4107 -7.56442 -11.9329 -0.718489 0.363943 -1.6708 -3.55795 -2.85333 2.05623 -6.34562 -1.53272 5.29041 4.42169 -28.9776 22.0147 1.59101 5.54923 26.5734 7.18629 59.0421 85.8459 2.68474 -1.12638 0.764445 37.9386 28.008 73.698 26.2405 28.4472 13.118 18.2167 29.0248 19.6359 0 22.4358 32.6146 28.1246 -8.63175 30.7051 32.2053 23.7634 -7.83088 26.7354 35.1526 30.0193 0.309875 -0.405973 -0.00219543 0.0240216 -0.333889 0.405984 0 0.32128 -0.405972 -0.00227624 1.70755e-006 -0.321274 0.405984 0 
-0.105496 -0.0600292 0.0442884 2.96314e-012 2.91868e-008 -5.10936e-006 0 -0 0 0 -0 0 0 -0 0 -0.712251 0.302433 -1.23885e-011 -10.9949 -15.322 -26.5398 -25.626 -22.9848 -25.3885 16.6985 6.9309 -5.46453 -5.69308 -75.8649 123.342 -6.86633 -4.64067 -5.01487 -32.4107 -7.56442 -11.9329 -0.718489 0.363943 -1.6708 -3.55795 -2.85333 2.05623 -6.34562 -1.53272 5.29041 4.42169 -28.9776 22.0147 1.42369 5.3744 27.1207 7.62292 59.8977 85.6819 2.40239 -1.00792 0.684051 37.9386 28.008 73.698 26.2405 28.4472 13.118 18.2167 29.0248 19.6359 0 22.4358 32.6146 28.1246 -8.63175 30.7051 32.2053 23.7634 -7.83088 26.7354 35.1526 30.0193 0.321644 -0.396997 -0.00222845 0.0240216 -0.345658 0.397008 0 0.333049 -0.396997 -0.00230747 1.70755e-006 -0.333042 0.397008 0 
-0.105637 -0.0600293 0.0444696 2.57899e-012 3.02235e-008 -5.10936e-006 0 -0 0 0 -0 0 0 -0 0 -0.712264 0.30285 -1.20191e-011 -10.9949 -15.322 -26.5398 -25.626 -22.9848 -25.3885 16.6985 6.9309 -5.46453 -5.69308 -75.8649 123.342 -6.86633 -4.64067 -5.01487 -32.4107 -7.56442 -11.9329 -0.718489 0.363943 -1.6708 -3.55795 -2.85333 2.05623 -6.34562 -1.53272 5.29041 4.42169 -28.9776 22.0147 1.26028 5.20361 27.6289 8.05217 60.7392 85.4846 2.12665 -0.892235 0.605537 37.9386 28.008 73.698 26.2405 28.4472 13.118 18.2167 29.0248 19.6359 0 22.4358 32.6146 28.1246 -8.63175 30.7051 32.2053 23.7634 -7.83088 26.7354 35.1526 30.0193 0.333057 -0.38811 -0.00225588 0.0240216 -0.357071 0.388121 0 0.344461 -0.388109 -0.00233313 2.26117e-006 -0.344455 0.388121 0 
-0.105776 -0.0600295 0.0446447 6.72191e-013 3.1227e-008 -5.10934e-006 0 -0 0 0 -0 0 0 -0 0 -0.712277 0.303263 -1.15661e-011 -10.9949 -15.322 -26.5398 -25.626 -22.9848 -25.3885 16.6985 6.9309 -5.46453 -5.69308 -75.8649 123.342 -6.86633 -4.64067 -5.01487 -32.4107 -7.56442 -11.9329 -0.718489 0.363943 -1.6708 -3.55795 -2.85333 2.05623 -6.34562 -1.53272 5.29041 4.42169 -28.9776 22.0147 1.10135 5.03746 28.0977 8.47066 61.5638 85.2574 1.85847 -0.779718 0.529175 37.9386 28.008 73.698 26.2405 28.4472 13.118 18.2167 29.0248 19.6359 0 22.4358 32.6146 28.1246 -8.63175 30.7051 32.2053 23.7634 -7.83088 26.7354 35.1526 30.0193 0.344081 -0.379348 -0.00227796 0.0240216 -0.368095 0.37936 0 0.355486 -0.379348 -0.00235346 2.28084e-006 -0.35548 0.37936 0 
-0.105913 -0.0600296 0.0448129 1.37298e-012 3.2194e-008 -5.10933e-006 0 -0 0 0 -0 0 0 -0 0 -0.71229 0.30367 -1.10212e-011 -10.9949 -15.322 -26.5398 -25.626 -22.9848 -25.3885 16.6985 6.9309 -5.46453 -5.69308 -75.8649 123.342 -6.86633 -4.64067 -5.01487 -32.4107 -7.56442 -11.9329 -0.718489 0.363943 -1.6708 -3.55795 -2.85333 2.05623 -6.34562 -1.53272 5.29041 4.42169 -28.9776 22.0147 0.947564 4.87665 28.5271 8.87498 62.3679 85.0043 1.59896 -0.67084 0.455282 37.9386 28.008 73.698 26.2405 28.4472 13.118 18.2167 29.0248 19.6359 0 22.4358 32.6146 28.1246 -8.63175 30.7051 32.2053 23.7634 -7.83088 26.7354 35.1526 30.0193 0.354679 -0.370757 -0.00229495 0.0240216 -0.378693 0.370769 0 0.366084 -0.370756 -0.00236875 1.70755e-006 -0.366078 0.370769 0 
-0.106046 -0.0600298 0.0449737 -2.23304e-012 3.31208e-008 -5.10932e-006 0 -0 0 0 -0 0 0 -0 0 -0.712302 0.304069 -1.03751e-011 -10.9949 -15.322 -26.5398 -25.626 -22.9848 -25.3885 16.6985 6.9309 -5.46453 -5.69308 -75.8649 123.342 -6.86633 -4.64067 -5.01487 -32.4107 -7.56442 -11.9329 -0.718489 0.363943 -1.6708 -3.55795 -2.85333 2.05623 -6.34562 -1.53272 5.29041 4.42169 -28.9776 22.0147 0.799691 4.722 28.9171 9.26165 63.1472 84.7298 1.34943 -0.566151 0.384233 37.9386 28.008 73.698 26.2405 28.4472 13.118 18.2167 29.0248 19.6359 0 22.4358 32.6146 28.1246 -8.63175 30.7051 32.2053 23.7634 -7.83088 26.7354 35.1526 30.0193 0.364804 -0.362387 -0.0023072 0.0240216 -0.388818 0.362399 0 0.376209 -0.362387 -0.00237933 2.41484e-006 -0.376203 0.362399 0 
-0.106174 -0.06003 0.0451261 1.05112e-012 3.4003e-008 -5.10931e-006 0 -0 0 0 -0 0 0 -0 0 -0.712314 0.304458 -9.61856e-012 -10.9949 -15.322 -26.5398 -25.626 -22.9848 -25.3885 16.6985 6.9309 -5.46453 -5.69308 -75.8649 123.342 -6.86633 -4.64067 -5.01487 -32.4107 -7.56442 -11.9329 -0.718489 0.363943 -1.6708 -3.55795 -2.85333 2.05623 -6.34562 -1.53272 5.29041 4.42169 -28.9776 22.0147 0.658665 4.57451 29.2677 9.62711 63.8964 84.4395 1.11146 -0.466311 0.316473 37.9386 28.008 73.698 26.2405 28.4472 13.118 18.2167 29.0248 19.6359 0 22.4358 32.6146 28.1246 -8.63175 30.7051 32.2053 23.7634 -7.83088 26.7354 35.1526 30.0193 0.374403 -0.354302 -0.0023151 0.0240216 -0.398417 0.354314 0 0.385808 -0.354301 -0.00238562 1.70755e-006 -0.385803 0.354314 0 
-0.106297 -0.0600303 0.0452692 -1.0242e-012 3.48354e-008 -5.1093e-006 0 -0 0 0 -0 0 0 -0 0 -0.712325 0.304833 -8.74298e-012 -10.9949 -15.322 -26.5398 -25.626 -22.9848 -25.3885 16.6985 6.9309 -5.46453 -5.69308 -75.8649 123.342 -6.86633 -4.64067 -5.01487 -32.4107 -7.56442 -11.9329 -0.718489 0.363943 -1.6708 -3.55795 -2.85333 2.05623 -6.34562 -1.53272 5.29041 4.42169 -28.9776 22.0147 0.525617 4.43537 29.5793 9.96763 64.6088 84.1398 0.886947 -0.372118 0.252547 37.9386 28.008 73.698 26.2405 28.4472 13.118 18.2167 29.0248 19.6359 0 22.4358 32.6146 28.1246 -8.63175 30.7051 32.2053 23.7634 -7.83088 26.7354 35.1526 30.0193 0.383412 -0.346576 -0.00231913 0.0240216 -0.407427 0.346589 0 0.394817 -0.346576 -0.00238812 2.41484e-006 -0.394812 0.346589 0 
